<?xml version="1.0" encoding="utf-8"?>
<!-- Generator: Adobe Illustrator 16.0.0, SVG Export Plug-In . SVG Version: 6.00 Build 0)  -->
<!DOCTYPE svg PUBLIC "-//W3C//DTD SVG 1.1//EN" "http://www.w3.org/Graphics/SVG/1.1/DTD/svg11.dtd">
<svg version="1.1" id="Layer_2" xmlns="http://www.w3.org/2000/svg" xmlns:xlink="http://www.w3.org/1999/xlink" x="0px" y="0px"
	 width="500px" height="500px" viewBox="0 0 500 500" enable-background="new 0 0 500 500" xml:space="preserve">
<g id="Layer_3">
</g>
<g>
	<g>
		<g>
			<path fill="#FFFFFF" d="M258.576,166.995c-45.872,0-83.192,37.318-83.192,83.188c0,45.869,37.32,83.186,83.192,83.186
				c45.869,0,83.187-37.316,83.187-83.186C341.763,204.313,304.445,166.995,258.576,166.995z"/>
			<path fill="#FEC10D" d="M258.576,145.977c-57.462,0-104.211,46.747-104.211,104.206c0,57.458,46.749,104.204,104.211,104.204
				c57.458,0,104.205-46.746,104.205-104.204C362.781,192.723,316.034,145.977,258.576,145.977z M258.576,333.368
				c-45.872,0-83.192-37.316-83.192-83.186c0-45.87,37.32-83.188,83.192-83.188c45.869,0,83.187,37.318,83.187,83.188
				C341.763,296.052,304.445,333.368,258.576,333.368z"/>
		</g>
		<g>
			<path fill="#FEC10D" d="M258.567,128.196c-5.805,0-10.509-4.706-10.509-10.509v-57.54c0-5.804,4.704-10.509,10.509-10.509
				s10.509,4.706,10.509,10.509v57.54C269.076,123.49,264.372,128.196,258.567,128.196z"/>
		</g>
		<g>
			<path fill="#FEC10D" d="M258.573,450.362c-5.805,0-10.509-4.705-10.509-10.51v-57.184c0-5.804,4.704-10.509,10.509-10.509
				s10.509,4.705,10.509,10.509v57.184C269.082,445.657,264.378,450.362,258.573,450.362z"/>
		</g>
		<g>
			<path fill="#FEC10D" d="M447.543,260.688h-56.487c-5.805,0-10.51-4.704-10.51-10.509c0-5.804,4.705-10.509,10.51-10.509h56.487
				c5.804,0,10.509,4.705,10.509,10.509C458.052,255.984,453.347,260.688,447.543,260.688z"/>
		</g>
		<g>
			<path fill="#FEC10D" d="M126.079,260.684H68.562c-5.805,0-10.51-4.704-10.51-10.509c0-5.804,4.705-10.509,10.51-10.509h57.518
				c5.804,0,10.509,4.705,10.509,10.509C136.588,255.979,131.883,260.684,126.079,260.684z"/>
		</g>
		<g>
			<path fill="#FEC10D" d="M352.249,167.001c-2.69,0-5.379-1.026-7.432-3.078c-4.104-4.104-4.104-10.758,0-14.862l30.853-30.854
				c4.104-4.104,10.758-4.104,14.863,0c4.104,4.104,4.104,10.758,0,14.862l-30.854,30.854
				C357.628,165.975,354.938,167.001,352.249,167.001z"/>
		</g>
		<g>
			<path fill="#FEC10D" d="M133.688,385.569c-2.689,0-5.378-1.025-7.431-3.077c-4.104-4.104-4.104-10.758-0.001-14.862
				l31.192-31.197c4.104-4.105,10.758-4.106,14.863-0.001c4.104,4.104,4.104,10.758,0.001,14.861l-31.193,31.198
				C139.067,384.543,136.377,385.569,133.688,385.569z"/>
		</g>
		<g>
			<path fill="#FEC10D" d="M383.508,385.635c-2.689,0-5.378-1.026-7.431-3.078l-31.66-31.661c-4.104-4.104-4.104-10.759,0-14.862
				c4.104-4.104,10.757-4.104,14.862,0l31.66,31.66c4.104,4.104,4.104,10.759,0,14.863
				C388.888,384.608,386.197,385.635,383.508,385.635z"/>
		</g>
		<g>
			<path fill="#FEC10D" d="M164.883,167.001c-2.689,0-5.379-1.026-7.431-3.078l-31.195-31.198c-4.104-4.104-4.104-10.758,0-14.862
				c4.104-4.104,10.758-4.105,14.862,0l31.195,31.197c4.104,4.104,4.104,10.758,0,14.862
				C170.263,165.975,167.572,167.001,164.883,167.001z"/>
		</g>
	</g>
	<path fill="#FFFFFF" d="M247.56,328.018c-5.783-0.989-9.672-6.478-8.687-12.262c0.275-1.619,0.409-3.048,0.409-4.367
		c0-13.738-11.178-24.915-24.917-24.915c-2.844,0-5.719,0.521-8.544,1.55c-4.667,1.697-9.886-0.061-12.573-4.235
		c-10.068-15.639-27.144-24.976-45.676-24.976c-29.974,0-54.359,24.382-54.359,54.352c0,1.295,0.104,2.712,0.213,4.212
		c0.378,5.15-3,9.849-8.008,11.108c-13.077,3.287-22.21,14.979-22.21,28.432c0,16.201,13.17,29.382,29.359,29.382h149.995
		c16.202,0,29.384-13.181,29.384-29.382C271.946,342.588,261.69,330.435,247.56,328.018z"/>
	<path fill="#808083" d="M260.508,309.594c-0.947-24.632-21.282-44.38-46.143-44.38c-2.616,0-5.23,0.229-7.825,0.686
		c-14.287-17.881-35.806-28.347-58.968-28.347c-40.872,0-74.274,32.594-75.58,73.151c-18.046,8.002-30.044,25.948-30.044,46.213
		c0,27.924,22.707,50.642,50.619,50.642h149.995c27.925,0,50.644-22.718,50.644-50.642
		C293.206,335.493,279.918,316.888,260.508,309.594z M242.563,386.298H92.567c-16.189,0-29.359-13.181-29.359-29.382
		c0-13.453,9.133-25.145,22.21-28.432c5.008-1.26,8.386-5.958,8.008-11.108c-0.109-1.5-0.213-2.917-0.213-4.212
		c0-29.97,24.386-54.352,54.359-54.352c18.532,0,35.607,9.337,45.676,24.976c2.688,4.175,7.906,5.933,12.573,4.235
		c2.825-1.028,5.7-1.55,8.544-1.55c13.739,0,24.917,11.177,24.917,24.915c0,1.319-0.134,2.748-0.409,4.367
		c-0.985,5.784,2.903,11.272,8.687,12.262c14.131,2.417,24.387,14.57,24.387,28.898
		C271.946,373.117,258.765,386.298,242.563,386.298z"/>
</g>
</svg>
